:SAMPLES-PER-SECOND 30
:FULLY-SPECIFIED
:DEGREES
435
root  54.7845 35.4829 -1.53925 -2.54889 -88.6254 38.7515
RightUpLeg  -74.0418 -12.7637 14.5532
RightLeg  46.3495 -6.74944 -7.84732
RightFoot  -8.02125 0.136637 -6.53186
RightToes  2.32829e-010 0 -3.6325e-017
Spine  75.6878 -4.59179 6.67816
Spine1  -2.49704 0.717452 -5.4637
HEad  -37.8677 -2.55651 -0.231637
LeftShoulder1  8.96603 -27.8576 -22.0202
LeftArm  -80.7636 -61.1284 35.6664
LeftForeArm  1.19068 -15.5881 -2.0708
LeftHand  -0.244104 0.0205437 5.32207
RightShoulder  3.01816 14.0618 9.88714
RightArm  -77.9135 56.1813 -28.2617
RightForeArm  -13.979 12.0037 2.32012
RightHand  -0.399854 4.19053 -5.12372
LeftUpLeg  -77.113 16.0173 -25.0286
LeftLeg  38.6655 -2.98305 -2.18327
LeftFoot  0.234811 -1.23079 12.0791
LeftToes  1.42787e-010 7.94111e-011 2.6399e-011
436
root  54.9776 35.514 -1.59887 1.21692 -88.6622 33.9475
RightUpLeg  -73.1977 -13.2111 14.9869
RightLeg  46.0232 -6.49945 -7.48956
RightFoot  -7.70023 0.173161 -7.07364
RightToes  2.32829e-010 0 -3.6325e-017
Spine  75.0686 -4.50341 6.60685
Spine1  -1.69471 0.711886 -5.2622
HEad  -36.3343 -2.4011 -1.18497
LeftShoulder1  8.6573 -27.6295 -21.1997
LeftArm  -79.5003 -61.8473 34.0238
LeftForeArm  5.26958 -14.5663 -1.6076
LeftHand  -0.244104 0.0205437 5.32207
RightShoulder  2.93995 13.8019 9.67259
RightArm  -77.1763 57.6058 -27.4469
RightForeArm  -16.4415 12.6473 2.86605
RightHand  -0.998143 4.21369 -12.1211
LeftUpLeg  -76.2388 16.2915 -24.505
LeftLeg  38.365 -2.82741 -2.02628
LeftFoot  0.680516 -1.31791 12.4208
LeftToes  1.42787e-010 7.94111e-011 2.6399e-011
437
root  55.2346 35.6072 -1.67355 3.93073 -88.5492 29.7399
RightUpLeg  -71.7612 -13.9849 15.3873
RightLeg  45.2638 -6.27621 -7.06166
RightFoot  -7.35326 0.22145 -7.76408
RightToes  2.32829e-010 0 -3.6325e-017
Spine  74.207 -4.62985 6.61428
Spine1  -0.618244 0.540184 -5.16061
HEad  -34.7989 -2.07242 -2.31371
LeftShoulder1  8.5018 -27.3458 -20.9455
LeftArm  -75.8046 -62.8921 31.1314
LeftForeArm  9.56352 -12.5147 -1.40629
LeftHand  -0.244104 0.0205437 5.32207
RightShoulder  2.82072 13.2784 9.47472
RightArm  -74.7176 59.9714 -26.3355
RightForeArm  -18.0514 12.6335 3.65234
RightHand  -1.84286 5.43935 -19.8809
LeftUpLeg  -74.5132 16.3218 -23.4773
LeftLeg  37.4295 -2.24137 -1.47266
LeftFoot  1.3818 -1.43016 12.6963
LeftToes  1.42787e-010 7.94111e-011 2.6399e-011
438
root  55.5355 35.7684 -1.78034 -2.45306 -88.4817 34.4033
RightUpLeg  -69.9255 -14.8251 15.6052
RightLeg  44.0161 -5.99323 -6.48074
RightFoot  -6.74376 0.304948 -8.69811
RightToes  2.32829e-010 0 -3.6325e-017
Spine  73.0168 -4.57303 6.50552
Spine1  0.626344 0.393908 -4.90558
HEad  -33.2662 -1.45436 -3.79376
LeftShoulder1  8.76803 -27.3427 -21.8592
LeftArm  -69.5773 -63.7774 25.5672
LeftForeArm  11.3065 -9.33361 -1.57179
LeftHand  -0.244104 0.0205437 5.32207
RightShoulder  2.7287 12.7467 9.46016
RightArm  -71.6445 62.8272 -24.1967
RightForeArm  -15.2887 11.4682 4.04925
RightHand  -2.45521 6.60414 -23.8142
LeftUpLeg  -72.1751 16.3272 -22.2501
LeftLeg  35.8159 -1.6881 -0.944331
LeftFoot  2.46964 -1.48298 12.0795
LeftToes  1.42787e-010 7.94111e-011 2.6399e-011
439
root  55.8579 36.0102 -1.91553 -15.5049 -88.5017 45.5352
RightUpLeg  -67.6079 -15.7605 15.7381
RightLeg  42.1667 -5.55144 -5.66424
RightFoot  -5.80253 0.425295 -9.57097
RightToes  2.32829e-010 0 -3.6325e-017
Spine  71.7089 -4.20761 6.29383
Spine1  1.81991 0.433402 -4.41345
HEad  -31.4457 -0.830758 -5.53609
LeftShoulder1  9.53635 -27.6045 -24.1941
LeftArm  -60.6591 -63.6184 16.4944
LeftForeArm  10.1683 -6.5046 -2.00576
LeftHand  -0.244104 0.0205437 5.32207
RightShoulder  2.72566 12.3603 9.89635
RightArm  -67.894 65.4699 -19.7025
RightForeArm  -9.23156 9.9981 4.02818
RightHand  -2.44947 6.65707 -23.5823
LeftUpLeg  -69.443 16.5971 -21.0612
LeftLeg  33.8551 -1.57144 -0.777287
LeftFoot  3.9886 -1.48379 10.8066
LeftToes  1.42787e-010 7.94111e-011 2.6399e-011
440
root  56.1956 36.3519 -2.06948 -28.0674 -88.3331 56.0112
RightUpLeg  -64.7418 -17.0824 15.8714
RightLeg  39.5282 -4.90628 -4.61485
RightFoot  -4.60259 0.568261 -10.1455
RightToes  2.32829e-010 0 -3.6325e-017
Spine  70.4016 -3.8238 6.11858
Spine1  2.82893 0.510074 -3.84457
HEad  -29.4013 -0.457619 -7.23723
LeftShoulder1  10.5599 -27.7079 -27.4889
LeftArm  -50.0619 -61.6866 5.82126
LeftForeArm  8.91838 -5.30188 -2.73402
LeftHand  -0.244104 0.0205437 5.32207
RightShoulder  2.81891 12.1267 10.8462
RightArm  -61.6514 67.2251 -11.9217
RightForeArm  -5.1934 9.43645 4.13772
RightHand  -2.23255 6.13363 -22.5216
LeftUpLeg  -66.4445 17.1735 -20.2477
LeftLeg  31.4784 -1.79548 -0.837944
LeftFoot  6.42168 -1.58767 9.86173
LeftToes  1.42787e-010 7.94111e-011 2.6399e-011
441
root  56.5473 36.7846 -2.24287 -31.9995 -87.77 57.8973
RightUpLeg  -61.585 -18.9716 16.0793
RightLeg  36.0442 -3.98512 -3.38104
RightFoot  -3.1362 0.746348 -10.6549
RightToes  2.32829e-010 0 -3.6325e-017
Spine  68.9431 -3.67648 6.05684
Spine1  3.80274 0.385258 -3.35289
HEad  -27.5595 -0.163448 -8.65238
LeftShoulder1  11.3237 -27.4797 -30.2623
LeftArm  -39.9651 -57.8653 -3.98363
LeftForeArm  9.75206 -5.44896 -3.61914
LeftHand  -0.244104 0.0205437 5.32207
RightShoulder  2.97563 11.9859 12.1501
RightArm  -52.5116 67.6504 -1.76807
RightForeArm  -5.51674 9.85954 4.75221
RightHand  -2.17795 5.71186 -22.7829
LeftUpLeg  -63.2492 17.8843 -19.8059
LeftLeg  28.2596 -2.61855 -1.17583
LeftFoot  10.2493 -1.60799 8.1457
LeftToes  1.42787e-010 7.94111e-011 2.6399e-011
442
root  56.8974 37.24 -2.42301 -30.2682 -86.9515 54.2721
RightUpLeg  -58.5123 -21.3647 16.5035
RightLeg  32.11 -2.69501 -2.07738
RightFoot  -1.41086 0.980918 -11.3458
RightToes  2.32829e-010 0 -3.6325e-017
Spine  67.2965 -3.70005 6.06474
Spine1  4.97185 0.060527 -2.94361
HEad  -25.9323 0.462171 -9.7335
LeftShoulder1  11.5607 -27.0974 -31.5112
LeftArm  -31.917 -52.5306 -12.1627
LeftForeArm  12.0843 -6.0247 -4.23556
LeftHand  -0.244104 0.0205437 5.32207
RightShoulder  3.1755 11.919 13.6721
RightArm  -42.23 66.6559 8.65944
RightForeArm  -7.18782 10.5031 5.54862
RightHand  -2.24598 5.65664 -23.5792
LeftUpLeg  -59.8213 18.2301 -18.7446
LeftLeg  24.8852 -4.61224 -1.99668
LeftFoot  14.1689 -0.733453 2.90168
LeftToes  1.42787e-010 7.94111e-011 2.6399e-011
443
root  57.2493 37.6504 -2.56588 -29.1993 -86.1972 51.2943
RightUpLeg  -55.5799 -24.0559 17.1148
RightLeg  28.2003 -1.03356 -0.852371
RightFoot  0.482434 1.25213 -12.0045
RightToes  2.32829e-010 0 -3.6325e-017
Spine  65.4696 -3.67896 6.03032
Spine1  6.20386 -0.282465 -2.57008
HEad  -24.0236 1.55967 -10.7236
LeftShoulder1  11.5261 -26.4624 -32.2179
LeftArm  -26.0758 -46.4572 -18.4903
LeftForeArm  14.6329 -6.50571 -4.61533
LeftHand  -0.244104 0.0205437 5.32207
RightShoulder  3.42738 11.9648 15.3909
RightArm  -32.4887 64.2796 17.8581
RightForeArm  -7.14981 10.9095 6.20268
RightHand  -2.29273 5.76814 -23.8222
LeftUpLeg  -56.147 17.3212 -15.86
LeftLeg  23.5296 -6.69984 -2.88038
LeftFoot  14.9818 1.06074 -5.06036
LeftToes  1.42787e-010 7.94111e-011 2.6399e-011
444
root  57.6239 38.0022 -2.64008 -30.7551 -85.4984 50.8995
RightUpLeg  -52.7652 -26.7996 17.4764
RightLeg  24.4799 0.809628 0.15815
RightFoot  2.42572 1.50777 -12.2949
RightToes  2.32829e-010 0 -3.6325e-017
Spine  63.5305 -3.56326 5.82672
Spine1  7.25649 -0.502494 -2.2349
HEad  -21.5165 2.86378 -12.0362
LeftShoulder1  11.6457 -25.3266 -34.1716
LeftArm  -21.4271 -40.4657 -22.5348
LeftForeArm  16.9648 -6.7701 -5.18947
LeftHand  -0.244104 0.0205437 5.32207
RightShoulder  3.76084 12.1444 17.433
RightArm  -23.8901 60.4577 24.8345
RightForeArm  -6.41375 11.2611 6.81943
RightHand  -2.39147 6.05773 -24.2011
LeftUpLeg  -52.725 14.8674 -11.9818
LeftLeg  25.9765 -6.29449 -2.98648
LeftFoot  11.0062 1.90689 -9.91973
LeftToes  1.42787e-010 7.94111e-011 2.6399e-011
445
root  58.0305 38.3138 -2.64229 -34.3042 -84.7335 52.5751
RightUpLeg  -49.3 -28.083 15.7098
RightLeg  20.8066 0.803704 1.10133
RightFoot  4.44535 1.73815 -12.2599
RightToes  2.32829e-010 0 -3.6325e-017
Spine  61.8123 -3.44352 5.48434
Spine1  7.4593 -0.61098 -2.01747
HEad  -18.3217 4.32261 -13.7665
LeftShoulder1  11.9576 -23.7492 -37.6221
LeftArm  -17.1625 -34.5627 -24.4468
LeftForeArm  18.8742 -6.9467 -6.05308
LeftHand  -0.244104 0.0205437 5.32207
RightShoulder  4.19033 12.429 19.8761
RightArm  -16.3485 55.1083 29.2499
RightForeArm  -7.04685 11.9035 7.47439
RightHand  -2.618 6.59147 -25.2711
LeftUpLeg  -49.8003 12.1885 -9.27467
LeftLeg  31.5056 -2.11378 -0.986796
LeftFoot  4.77716 1.1765 -8.35235
LeftToes  1.42787e-010 7.94111e-011 2.6399e-011
446
root  58.4525 38.5657 -2.57655 -37.9865 -84.0449 54.4112
RightUpLeg  -43.8581 -24.9312 9.07326
RightLeg  17.2459 -4.95484 2.44403
RightFoot  6.49013 1.95113 -12.0958
RightToes  2.32829e-010 0 -3.6325e-017
Spine  60.639 -3.40703 5.21804
Spine1  6.53414 -0.676995 -1.96253
HEad  -14.3707 6.18724 -15.4542
LeftShoulder1  12.119 -22.0468 -41.0199
LeftArm  -13.4471 -28.298 -25.3271
LeftForeArm  19.9783 -7.26568 -6.86169
LeftHand  -0.244104 0.0205437 5.32207
RightShoulder  4.63171 12.7187 22.2815
RightArm  -9.92705 48.6147 31.9196
RightForeArm  -8.70847 12.7335 7.98049
RightHand  -2.83755 7.08527 -26.2708
LeftUpLeg  -46.7143 10.3175 -7.90796
LeftLeg  38.0558 3.78738 3.55969
LeftFoot  -0.126779 0.439124 -4.56158
LeftToes  1.42787e-010 7.94111e-011 2.6399e-011
447
root  58.8544 38.7343 -2.48342 -39.0189 -83.2288 53.4918
RightUpLeg  -38.9055 -20.5453 2.42757
RightLeg  14.2934 -11.8375 3.78882
RightFoot  8.17194 2.10495 -11.8628
RightToes  2.32829e-010 0 -3.6325e-017
Spine  58.4644 -3.39681 5.52863
Spine1  7.03834 -0.548924 -1.94114
HEad  -10.2179 7.54099 -16.3445
LeftShoulder1  12.1534 -21.2782 -42.5503
LeftArm  -11.2095 -22.2876 -26.5333
LeftForeArm  20.6328 -7.48958 -7.13905
LeftHand  -0.244104 0.0205437 5.32207
RightShoulder  5.00591 12.7538 24.6447
RightArm  -5.72778 42.0356 32.4553
RightForeArm  -10.3309 13.357 8.27284
RightHand  -2.91394 7.24805 -26.6122
LeftUpLeg  -42.8796 8.59065 -6.80077
LeftLeg  44.3437 7.12877 7.75652
LeftFoot  -2.62411 0.262678 -3.29837
LeftToes  1.42787e-010 7.94111e-011 2.6399e-011
448
root  59.2676 38.7935 -2.32752 -38.9482 -82.7573 51.4584
RightUpLeg  -35.3947 -17.187 -1.7098
RightLeg  12.1562 -16.4685 4.69758
RightFoot  9.45026 2.14495 -11.2914
RightToes  2.32829e-010 0 -3.6325e-017
Spine  56.5656 -3.45633 6.14098
Spine1  6.93292 -0.304204 -2.05596
HEad  -5.65043 8.76962 -16.6577
LeftShoulder1  12.1757 -20.6749 -43.7776
LeftArm  -9.23353 -16.0253 -27.0361
LeftForeArm  20.7565 -8.38026 -7.31299
LeftHand  -0.244104 0.0205437 5.32207
RightShoulder  5.30402 12.6443 26.7865
RightArm  -1.45822 35.1102 32.5566
RightForeArm  -12.3921 14.0576 8.49913
RightHand  -2.88169 7.06998 -26.6885
LeftUpLeg  -38.5148 6.7423 -5.49652
LeftLeg  49.8118 6.88758 9.05784
LeftFoot  -4.06983 0.254599 -3.61891
LeftToes  1.42787e-010 7.94111e-011 2.6399e-011
449
root  59.7177 38.7479 -2.10478 -37.4791 -82.6348 48.2012
RightUpLeg  -33.1159 -14.9803 -3.93616
RightLeg  10.8779 -19.1584 5.10483
RightFoot  10.406 2.0927 -10.4828
RightToes  2.32829e-010 0 -3.6325e-017
Spine  54.982 -3.81878 7.12977
Spine1  6.0892 -0.0825509 -2.68829
HEad  -1.61552 9.94464 -16.6139
LeftShoulder1  12.0767 -20.0935 -44.5397
LeftArm  -7.12787 -9.42877 -27.0193
LeftForeArm  20.1181 -10.369 -7.18439
LeftHand  -0.244104 0.0205437 5.32207
RightShoulder  5.59106 12.4815 28.9816
RightArm  3.95872 27.9824 32.3246
RightForeArm  -15.8082 15.3594 8.53491
RightHand  -2.77754 6.60706 -26.7103
LeftUpLeg  -33.8923 5.08118 -4.30472
LeftLeg  54.1034 5.56895 8.69712
LeftFoot  -5.51504 0.198577 -3.23882
LeftToes  1.42787e-010 7.94111e-011 2.6399e-011
